<?xml version="1.0" standalone="no"?>
<!DOCTYPE svg PUBLIC "-//W3C//DTD SVG 20010904//EN"
 "http://www.w3.org/TR/2001/REC-SVG-20010904/DTD/svg10.dtd">
<svg version="1.0" xmlns="http://www.w3.org/2000/svg"
 width="225.000000pt" height="225.000000pt" viewBox="0 0 225.000000 225.000000"
 preserveAspectRatio="xMidYMid meet">
<metadata>
Created by potrace 1.14, written by Peter Selinger 2001-2017
</metadata>
<g transform="translate(0.000000,225.000000) scale(0.100000,-0.100000)"
fill="#000000" stroke="none">
<path d="M1108 2069 c-21 -3 -46 -14 -57 -23 -19 -17 -35 -66 -21 -66 4 0 10
13 13 29 9 42 49 55 156 48 134 -8 208 -48 199 -107 -4 -26 0 -33 28 -50 l33
-19 20 25 c10 13 24 24 31 24 21 0 117 -90 131 -121 11 -29 10 -33 -10 -49
-21 -15 -22 -19 -10 -39 11 -16 20 -20 39 -16 22 5 28 0 43 -31 27 -55 34
-122 13 -130 -11 -4 -16 -18 -16 -45 0 -46 -18 -59 -84 -59 -51 0 -56 -8 -26
-35 11 -10 20 -26 19 -34 -3 -34 2 -51 13 -48 19 3 34 -68 19 -87 -15 -18 -49
-13 -67 11 -7 10 -14 14 -14 9 0 -5 8 -18 17 -28 25 -27 24 -58 -1 -59 -17 -1
-18 -2 -3 -6 11 -3 17 -14 17 -33 0 -16 11 -42 24 -58 19 -21 24 -37 21 -62
l-4 -33 24 23 24 22 34 -26 c19 -14 36 -26 39 -26 10 0 28 62 28 96 0 19 2 34
5 34 12 0 101 -104 117 -137 9 -19 20 -54 23 -77 l7 -43 -53 -7 c-59 -8 -95
-24 -123 -55 -24 -26 -36 -27 -36 -2 0 11 -4 23 -10 26 -5 3 -10 2 -10 -4 0
-5 -12 -9 -27 -8 -22 2 -28 -2 -28 -18 0 -13 -8 -21 -22 -23 -16 -2 -23 -11
-25 -35 -2 -27 -8 -33 -30 -35 -18 -2 -28 2 -29 10 -2 19 -28 -122 -28 -154
-1 -39 10 -35 37 13 13 22 25 39 27 37 3 -2 -2 -26 -10 -53 -17 -56 -19 -101
-5 -110 14 -9 12 -48 -3 -69 -20 -28 -59 -12 -55 21 2 15 -1 28 -7 30 -5 1
-10 -11 -9 -29 1 -27 7 -35 35 -46 23 -10 35 -10 37 -3 5 15 19 14 69 -5 44
-17 56 -41 31 -62 -7 -5 -60 -20 -118 -32 -124 -27 -134 -29 -129 -34 10 -10
234 36 251 51 23 20 24 69 2 77 -15 6 -15 9 5 29 12 14 21 36 21 54 0 18 14
54 31 82 l31 50 29 -22 c23 -17 43 -21 97 -21 143 0 268 71 318 179 92 195
-83 483 -341 565 -58 18 -59 19 -23 44 32 21 78 88 78 114 0 7 -13 12 -34 12
-60 0 -65 6 -59 63 6 61 -19 174 -50 227 -29 49 -88 122 -94 116 -3 -3 5 -18
18 -33 59 -70 109 -208 109 -297 0 -45 -10 -55 -58 -57 -29 -2 -49 -10 -64
-26 -21 -22 -23 -23 -29 -6 -5 12 -8 6 -8 -19 -1 -44 -21 -52 -21 -9 0 17 -4
33 -10 36 -5 3 -10 11 -10 16 0 6 5 7 11 4 18 -12 99 16 110 37 6 11 8 30 5
43 -4 16 -1 25 10 29 23 9 13 99 -16 149 -22 37 -29 41 -62 38 -20 -2 -25 24
-7 34 15 10 8 76 -10 98 -20 25 -114 87 -181 121 -30 15 -70 38 -89 52 -19 13
-50 28 -70 34 -47 12 -147 17 -193 9z m382 -126 c0 -2 -7 -11 -15 -19 -19 -19
-59 -9 -51 13 3 8 6 19 6 23 0 5 14 4 30 -1 17 -6 30 -13 30 -16z m360 -717
c111 -38 171 -82 253 -186 57 -72 85 -144 93 -235 7 -73 -11 -128 -61 -190
-69 -83 -266 -135 -335 -88 -37 25 -39 32 -23 71 8 19 12 40 9 48 -3 9 7 15
32 20 52 9 79 28 102 74 22 44 25 60 10 60 -5 0 -10 -8 -10 -17 0 -33 -51 -92
-89 -103 -34 -10 -38 -8 -64 22 -15 18 -26 37 -24 42 14 43 152 101 182 76 21
-18 25 13 10 84 -16 75 -37 111 -104 176 -25 25 -58 60 -73 77 -15 18 -41 39
-58 48 -51 26 -37 36 57 43 11 1 53 -9 93 -22z"/>
<path d="M1832 1170 c64 -42 86 -63 128 -126 27 -42 55 -94 60 -115 12 -44 24
-54 14 -11 -24 97 -110 210 -202 266 -89 54 -89 43 0 -14z"/>
<path d="M904 2021 c-79 -38 -106 -68 -99 -110 5 -27 2 -33 -20 -41 -17 -7
-33 -7 -45 0 -23 12 -58 -14 -99 -74 -41 -59 -47 -87 -23 -116 16 -20 17 -29
9 -57 -6 -18 -14 -33 -17 -33 -4 0 -36 9 -70 20 -98 31 -99 31 -76 -41 8 -24
17 -56 20 -71 9 -38 40 -64 92 -77 49 -13 50 -22 5 -41 -19 -8 -37 -27 -50
-56 -28 -59 -26 -71 9 -79 34 -7 36 -12 16 -34 -45 -51 -70 -127 -67 -201 3
-71 20 -115 66 -167 24 -27 45 -57 48 -68 2 -11 6 39 7 110 1 72 4 140 5 153
1 13 -1 20 -6 15 -5 -5 -12 -58 -16 -118 l-6 -109 -29 35 c-37 43 -48 69 -53
133 -6 63 14 135 55 199 27 43 34 48 63 46 17 -2 43 3 55 10 23 12 24 11 21
-21 -2 -18 -10 -43 -17 -55 -19 -31 -19 -166 1 -218 9 -22 16 -32 16 -22 1 9
9 17 19 17 22 0 72 -22 72 -32 0 -4 20 -19 45 -34 41 -23 57 -43 38 -45 -5 0
-16 -2 -26 -4 -27 -5 -85 22 -113 52 -13 14 -24 21 -24 15 0 -28 87 -82 131
-82 23 0 26 -32 4 -50 -8 -6 -32 -14 -54 -17 -39 -5 -40 -5 -46 31 -8 39 -29
48 -38 16 -11 -43 -33 -18 -42 49 -5 43 -15 71 -25 71 -4 0 -6 -8 -4 -17 2
-10 11 -54 20 -98 23 -109 29 -119 48 -73 9 21 16 43 17 50 0 7 5 1 11 -14 8
-23 16 -28 44 -28 23 0 34 -5 34 -14 0 -16 -35 -16 -59 -1 -9 5 -12 3 -9 -6 3
-9 20 -14 46 -14 37 0 42 -3 42 -22 0 -16 9 -25 35 -34 19 -7 35 -18 36 -24 1
-5 2 -31 2 -57 2 -43 0 -47 -23 -51 -20 -3 -19 -4 8 -6 28 -1 32 2 32 24 0 25
0 25 37 10 21 -9 40 -20 44 -26 3 -5 10 -9 15 -8 31 5 56 -3 63 -23 7 -20 8
-20 19 9 10 29 15 32 69 39 32 3 67 10 78 15 19 7 19 8 -2 8 -35 1 -127 -21
-144 -36 -12 -10 -19 -10 -33 0 -14 10 -16 21 -10 56 l7 43 71 -5 71 -6 -75
12 -75 12 35 13 c64 24 99 44 105 61 4 10 -2 8 -18 -7 -14 -13 -31 -25 -38
-26 -8 -2 -26 -6 -41 -10 -20 -6 -31 -3 -47 13 -12 12 -28 21 -37 21 -11 0
-15 6 -11 20 4 14 -2 25 -19 36 -13 9 -24 25 -24 35 0 10 -4 21 -10 24 -5 3
-10 11 -10 16 0 19 84 -2 99 -25 8 -11 31 -36 50 -54 33 -31 40 -33 81 -27 25
4 51 12 58 17 8 7 16 7 25 1 15 -13 37 -15 114 -14 49 0 61 -2 57 -13 -9 -23
-93 -25 -121 -3 -12 10 -23 15 -23 10 1 -19 100 -73 100 -54 0 5 -6 12 -12 14
-7 3 -3 6 10 6 12 1 22 -1 22 -3 0 -16 -24 -66 -32 -66 -5 0 -8 -6 -5 -12 2
-7 -7 -23 -20 -36 -13 -12 -19 -22 -12 -22 21 0 45 42 152 270 l17 35 -6 -48
c-5 -41 -4 -47 11 -47 10 0 35 18 56 40 40 42 42 65 8 96 -24 22 -24 34 0 34
10 0 41 -24 70 -54 28 -30 51 -49 51 -42 0 6 -20 31 -45 55 -49 47 -53 56 -29
65 9 4 15 9 12 11 -3 3 -18 -1 -34 -9 -16 -8 -49 -17 -74 -21 -25 -4 -58 -15
-75 -25 -32 -19 -127 -50 -214 -70 -59 -14 -204 -9 -256 9 -16 5 -49 15 -73
21 -47 12 -112 63 -112 89 0 9 -11 39 -25 66 -25 52 -35 148 -15 160 6 3 10
24 10 47 0 52 33 164 38 128 4 -32 23 -70 34 -70 5 0 8 8 6 18 -2 9 -10 16
-18 14 -10 -2 -12 15 -6 90 5 73 4 89 -6 73 -6 -10 -12 -34 -13 -52 -1 -18 -7
-39 -14 -46 -11 -15 -26 -72 -41 -168 -5 -30 -14 -66 -19 -80 -16 -40 -14 65
4 179 23 148 24 137 -12 140 -29 3 -33 7 -33 34 0 21 6 31 20 35 11 3 20 10
20 15 0 5 -8 7 -17 4 -10 -3 -31 5 -48 19 -29 24 -29 24 -13 57 15 32 15 35
-8 61 -19 22 -22 32 -14 52 25 67 101 148 115 125 9 -14 47 -12 69 5 14 11 17
22 12 45 -7 37 8 56 76 94 60 33 86 34 94 1 3 -14 11 -25 16 -25 6 0 7 7 4 16
-3 9 -6 20 -6 24 0 5 -8 14 -18 19 -14 8 -33 3 -78 -18z m-174 -581 c-18 -12
-50 -13 -50 -2 0 4 15 8 33 9 23 2 28 0 17 -7z m-31 -367 c3 -65 19 -108 22
-58 1 17 2 36 2 43 -1 23 12 12 30 -27 26 -58 23 -71 -18 -71 -43 0 -55 23
-55 111 0 76 16 78 19 2z m613 -245 c-13 -13 -92 -27 -113 -19 -8 3 11 10 41
17 76 16 87 17 72 2z m-612 -78 c0 -5 -4 -10 -10 -10 -5 0 -10 5 -10 10 0 6 5
10 10 10 6 0 10 -4 10 -10z m160 -14 c0 -14 4 -36 10 -50 7 -20 6 -26 -4 -26
-8 0 -16 10 -20 23 -9 35 -7 77 4 77 6 0 10 -11 10 -24z"/>
<path d="M1186 1984 c-20 -19 -20 -28 -2 -44 14 -11 12 -40 -2 -38 -24 3 -42
-4 -36 -13 3 -6 15 -9 25 -6 14 4 19 0 19 -17 0 -12 -5 -27 -12 -34 -17 -17
-48 14 -48 48 0 33 -26 48 -33 19 -3 -10 -1 -19 4 -19 5 0 9 -7 9 -16 0 -8 19
-34 41 -57 l42 -41 43 46 c25 27 45 41 49 34 3 -6 2 7 -1 28 -5 37 -4 39 12
25 15 -12 17 -12 12 1 -2 8 -15 16 -27 16 -12 1 -20 -4 -18 -10 5 -14 -25 -68
-41 -74 -7 -2 -12 6 -12 22 0 19 5 26 20 26 11 0 20 5 20 10 0 6 -9 10 -20 10
-11 0 -20 6 -20 14 0 16 27 29 41 20 5 -3 4 7 -2 23 -16 44 -38 53 -63 27z
m39 -24 c0 -22 -29 -18 -33 3 -3 14 1 18 15 15 10 -2 18 -10 18 -18z"/>
<path d="M1315 1826 c0 -30 3 -52 8 -49 4 2 7 26 7 54 0 27 -3 49 -7 49 -5 0
-8 -24 -8 -54z"/>
<path d="M1280 1809 c0 -11 -9 -35 -21 -52 l-21 -32 26 30 c22 26 36 75 21 75
-3 0 -5 -9 -5 -21z"/>
<path d="M1276 1738 c-17 -19 -25 -20 -99 -15 -132 9 -212 -13 -314 -86 -24
-17 -50 -42 -60 -56 -12 -19 -3 -14 33 17 71 63 70 62 134 87 59 23 106 30
189 27 42 -2 44 -3 25 -18 -18 -15 -18 -15 11 -9 51 10 63 7 117 -29 103 -70
203 -182 214 -241 3 -19 10 -33 14 -30 24 15 -51 138 -123 204 -16 14 -37 34
-46 44 -9 10 -36 30 -61 45 -25 14 -47 27 -49 29 -2 1 7 11 20 22 13 11 22 22
18 25 -3 3 -13 -4 -23 -16z"/>
<path d="M956 1595 c-3 -9 -6 -24 -5 -33 0 -9 5 -4 10 12 9 32 6 48 -5 21z"/>
<path d="M1246 1564 c-3 -9 -6 -41 -6 -72 0 -32 -4 -72 -9 -89 -6 -20 -6 -35
0 -38 5 -4 9 -19 9 -36 0 -16 4 -29 9 -29 5 0 10 63 10 140 1 77 0 140 -3 140
-2 0 -7 -7 -10 -16z"/>
<path d="M1370 1551 c0 -6 4 -13 10 -16 6 -3 7 1 4 9 -7 18 -14 21 -14 7z"/>
<path d="M750 1540 c0 -5 6 -10 14 -10 8 0 18 5 21 10 3 6 -3 10 -14 10 -12 0
-21 -4 -21 -10z"/>
<path d="M931 1442 c-7 -57 -11 -106 -7 -109 3 -4 6 11 7 33 1 39 1 39 19 -20
10 -32 24 -64 31 -70 9 -8 10 -6 4 9 -19 51 -27 95 -34 174 l-7 86 -13 -103z"/>
<path d="M1425 1503 c7 -20 22 -101 28 -153 3 -30 4 -29 5 11 2 57 -17 159
-30 159 -6 0 -7 -8 -3 -17z"/>
<path d="M1376 1468 c-3 -13 -7 -43 -9 -68 -3 -25 -7 -56 -11 -70 l-7 -25 12
25 c16 36 23 8 9 -36 -14 -42 -8 -53 12 -22 19 30 32 82 18 73 -11 -7 -12 3
-10 88 1 58 -6 75 -14 35z"/>
<path d="M1412 1410 c0 -19 2 -27 5 -17 2 9 2 25 0 35 -3 9 -5 1 -5 -18z"/>
<path d="M837 1423 c-4 -3 -7 -22 -6 -42 l1 -36 9 39 c9 39 8 52 -4 39z"/>
<path d="M1068 1333 c-3 -21 -1 -47 3 -58 5 -13 8 -1 8 38 1 65 -5 75 -11 20z"/>
<path d="M1526 1357 c3 -10 9 -15 12 -12 3 3 0 11 -7 18 -10 9 -11 8 -5 -6z"/>
<path d="M874 1285 c11 -8 26 -15 33 -15 22 0 14 8 -19 19 -30 10 -31 9 -14
-4z"/>
<path d="M1527 1293 c-4 -3 -7 -16 -7 -27 0 -15 3 -17 9 -8 9 15 61 19 80 7 9
-5 9 -2 0 14 -8 11 -16 17 -19 13 -9 -12 -31 -13 -44 -2 -7 5 -16 7 -19 3z"/>
<path d="M1228 1260 c-3 -18 0 -29 5 -27 13 4 21 57 8 57 -5 0 -11 -14 -13
-30z"/>
<path d="M1452 1275 c-2 -16 -28 -34 -107 -73 -57 -29 -108 -52 -113 -52 -5 0
-15 -6 -21 -14 -10 -12 -8 -17 8 -25 11 -6 31 -11 45 -11 34 0 115 28 147 51
14 10 29 16 32 13 9 -9 19 59 14 97 -2 19 -5 25 -5 14z"/>
<path d="M1193 1265 c-3 -9 -3 -18 -1 -21 3 -3 8 4 11 16 6 23 -1 27 -10 5z"/>
<path d="M1296 1263 c-6 -14 -5 -15 5 -6 7 7 10 15 7 18 -3 3 -9 -2 -12 -12z"/>
<path d="M806 1263 c-16 -16 -4 -64 22 -88 33 -31 101 -65 129 -65 27 0 53 10
53 20 0 5 -39 35 -87 67 -113 76 -109 74 -117 66z"/>
<path d="M1275 1230 c-3 -5 1 -10 9 -10 9 0 16 5 16 10 0 6 -4 10 -9 10 -6 0
-13 -4 -16 -10z"/>
<path d="M1515 1204 c-14 -83 -55 -175 -90 -204 -17 -14 -20 -34 -4 -24 17 10
75 107 84 139 4 17 10 24 12 18 4 -10 8 -9 19 1 18 19 18 26 -1 26 -8 0 -15 8
-14 18 0 10 3 12 6 5 10 -27 21 -11 13 18 -13 46 -18 46 -25 3z"/>
<path d="M1431 1124 c0 -11 3 -14 6 -6 3 7 2 16 -1 19 -3 4 -6 -2 -5 -13z"/>
<path d="M1421 1074 c0 -11 3 -14 6 -6 3 7 2 16 -1 19 -3 4 -6 -2 -5 -13z"/>
<path d="M1405 1039 c-4 -6 -5 -12 -2 -15 2 -3 7 2 10 11 7 17 1 20 -8 4z"/>
<path d="M627 975 c6 -40 10 -52 17 -44 2 2 -3 22 -10 44 l-13 40 6 -40z"/>
<path d="M1370 970 c-8 -16 -8 -20 4 -20 8 0 18 5 21 10 3 6 1 10 -5 10 -6 0
-8 5 -5 10 3 6 4 10 1 10 -3 0 -10 -9 -16 -20z"/>
<path d="M527 814 c-3 -11 -8 -40 -12 -66 l-6 -48 -40 0 c-28 0 -39 -4 -39
-15 0 -18 -24 -31 -78 -40 -33 -5 -43 -12 -48 -30 -3 -13 -1 -32 5 -42 9 -15
10 -12 11 18 0 34 3 37 36 43 42 8 94 -11 94 -36 0 -18 18 -26 69 -33 18 -2
29 0 26 6 -4 5 -22 9 -41 9 -30 0 -34 3 -34 25 0 19 -5 25 -21 25 -15 0 -19 4
-15 16 3 9 6 22 6 30 0 10 13 14 45 14 l45 0 0 51 c0 47 2 50 16 38 15 -12 16
-11 9 11 -10 35 -22 45 -28 24z"/>
<path d="M773 803 c9 -2 23 -2 30 0 6 3 -1 5 -18 5 -16 0 -22 -2 -12 -5z"/>
<path d="M1532 747 c-9 -11 -10 -17 -2 -22 15 -9 23 -1 18 21 -3 15 -4 16 -16
1z"/>
<path d="M560 741 c0 -5 5 -13 10 -16 6 -3 10 -2 10 4 0 5 -4 13 -10 16 -5 3
-10 2 -10 -4z"/>
<path d="M602 730 c0 -14 2 -19 5 -12 2 6 2 18 0 25 -3 6 -5 1 -5 -13z"/>
<path d="M1496 685 c-13 -31 -19 -36 -26 -25 -8 12 -10 10 -10 -8 0 -15 5 -22
12 -20 18 6 51 65 45 80 -2 7 -12 -5 -21 -27z"/>
<path d="M1312 611 c-8 -5 -35 -7 -60 -5 l-47 3 48 -9 c36 -6 55 -5 75 6 15 8
20 14 12 14 -8 0 -21 -4 -28 -9z"/>
<path d="M1450 596 c-15 -41 -10 -56 6 -17 8 18 13 36 10 39 -3 2 -10 -7 -16
-22z"/>
<path d="M750 592 c21 -13 100 -22 100 -11 0 5 -11 9 -24 9 -13 0 -39 3 -57 6
-23 4 -29 2 -19 -4z"/>
<path d="M616 574 c-5 -12 -13 -14 -34 -10 l-27 6 25 -15 c33 -19 37 -19 43 7
7 27 2 36 -7 12z"/>
<path d="M641 568 c0 -10 12 -24 29 -33 36 -19 36 -19 44 1 3 9 2 12 -5 9 -17
-11 -57 4 -62 23 -4 16 -5 16 -6 0z"/>
<path d="M842 540 c0 -14 2 -19 5 -12 2 6 2 18 0 25 -3 6 -5 1 -5 -13z"/>
<path d="M365 540 c3 -5 10 -10 16 -10 5 0 9 5 9 10 0 6 -7 10 -16 10 -8 0
-12 -4 -9 -10z"/>
<path d="M1278 543 c7 -3 16 -2 19 1 4 3 -2 6 -13 5 -11 0 -14 -3 -6 -6z"/>
<path d="M579 461 c85 -34 158 -61 162 -61 16 0 9 18 -8 23 -59 18 -201 68
-214 76 -9 5 -34 12 -55 16 -22 3 30 -21 115 -54z"/>
<path d="M1146 471 c-13 -14 -27 -19 -45 -16 -18 3 -16 1 7 -7 30 -10 34 -9
49 11 20 30 37 14 23 -23 -9 -25 -7 -28 25 -42 42 -17 55 -18 55 -1 0 7 -13
12 -32 12 -34 0 -38 7 -27 60 6 28 -32 32 -55 6z"/>
<path d="M990 420 c-9 -6 -10 -10 -3 -10 6 0 15 5 18 10 8 12 4 12 -15 0z"/>
<path d="M760 404 c0 -12 38 -27 130 -54 41 -11 90 -28 108 -36 38 -16 50 -18
36 -4 -6 6 -62 28 -125 49 -62 21 -122 42 -131 46 -10 4 -18 3 -18 -1z"/>
<path d="M1281 396 c-9 -10 -6 -17 13 -30 29 -18 36 -20 36 -7 0 5 -10 11 -21
14 -15 4 -20 11 -16 21 8 20 3 20 -12 2z"/>
<path d="M1456 364 c-5 -12 -14 -15 -36 -10 -39 7 -38 1 0 -12 26 -10 31 -8
41 9 6 12 9 23 6 25 -2 3 -7 -3 -11 -12z"/>
<path d="M1355 360 c-3 -5 -1 -10 4 -10 6 0 11 5 11 10 0 6 -2 10 -4 10 -3 0
-8 -4 -11 -10z"/>
<path d="M1064 295 c22 -17 40 -20 32 -6 -3 5 -16 11 -28 14 -22 6 -22 5 -4
-8z"/>
<path d="M1135 268 c17 -5 39 -14 50 -19 39 -18 180 -59 200 -58 20 0 20 0 0
9 -40 16 -253 80 -266 79 -8 0 0 -5 16 -11z"/>
<path d="M1503 263 c9 -2 23 -2 30 0 6 3 -1 5 -18 5 -16 0 -22 -2 -12 -5z"/>
</g>
</svg>
